PathFileType	3	(X/Y/Z)	D:\minhoCalibration\240510\subject1_KPNP\preferred\preferred08.trc
DataRate	CameraRate	NumFrames	NumMarkers	Units	OrigDataRate	OrigDataStartFrame	OrigNumFrames
200.0	200.0	15	10	mm	200.0	288	196	
Frame#	Time	Left_Ankle_Outer1			Left_Ankle_Inner1			Left_Knee_Outer1			Left_Knee_Inner1			Left_Wrist1			Right_Wrist1			Right_Knee_Inner1			Right_Knee_Outer1			Right_Ankle_Inner1			Right_Ankle_Outer1			
		X1	Y1	Z1	X2	Y2	Z2	X3	Y3	Z3	X4	Y4	Z4	X5	Y5	Z5	X6	Y6	Z6	X7	Y7	Z7	X8	Y8	Z8	X9	Y9	Z9	X10	Y10	Z10	
288	1.43	-543.58484	150.06033	-532.3811	-578.78424	159.98878	-487.66055	-372.14319	562.40643	-438.15891	-461.58588	545.97369	-380.16028	-421.44357	991.15485	-662.51672	-605.45441	1205.9724	-430.17551	-296.71182	1041.5405	-131.11833	-339.71255	1138.8138	-122.03018	-363.22766	999.89789	313.94513	-351.50119	1102.3342	346.48706
289	1.435	-541.86133	151.06955	-531.82867	-577.82562	160.90021	-487.6142	-372.34174	563.43677	-433.58798	-463.80127	546.86859	-377.78275	-420.17551	991.57416	-657.38385	-608.86432	1206.3998	-429.07938	-294.95483	1044.0833	-132.59671	-345.32916	1138.8296	-118.82214	-367.31412	988.0697	314.14972	-358.28442	1090.1718	346.68411
290	1.44	-540.09943	152.09354	-531.17603	-576.52222	161.60556	-487.52277	-372.95605	564.36023	-429.35962	-465.77344	547.80334	-375.55908	-418.70541	992.13629	-652.4035	-612.23682	1206.2832	-427.34286	-292.90402	1046.8615	-133.13268	-350.8862	1137.8468	-115.00162	-370.68362	974.12213	313.21375	-365.44296	1076.9669	347.28415
291	1.445	-538.66608	153.08228	-530.5108	-575.63782	162.39149	-487.16479	-373.53973	565.47516	-425.43063	-467.91919	548.68951	-373.15338	-417.00937	992.94501	-647.69043	-615.59583	1205.5928	-425.71848	-291.60471	1048.7896	-131.45622	-356.61115	1135.6569	-110.7761	-375.37491	961.20886	311.76611	-373.49957	1062.8116	348.25653
292	1.45	-537.45728	154.0455	-529.76245	-574.66589	163.14325	-486.83939	-374.19913	566.60651	-421.96457	-469.00604	549.0658	-372.67395	-415.25189	994.13116	-643.42053	-618.72241	1204.2919	-423.50864	-291.59085	1048.7217	-127.92298	-362.3927	1132.202	-106.31625	-379.31775	946.64685	309.83762	-382.58655	1047.4755	349.70633
293	1.455	-536.57697	154.89372	-529.03833	-573.76593	163.7151	-486.74094	-374.88907	567.7359	-418.90875	-470.35596	550.3241	-370.5213	-413.17307	995.79089	-639.65631	-622.08746	1202.6189	-421.32407	-292.71213	1046.3151	-124.35072	-367.56894	1127.9475	-101.62696	-383.67099	932.31024	307.89874	-391.77264	1031.0343	351.27084
294	1.46	-535.87067	155.80153	-528.39038	-573.479	164.42474	-485.93262	-375.3681	568.74304	-416.35602	-471.40735	551.18677	-369.22537	-410.98492	997.73669	-636.1087	-625.54712	1200.7301	-419.28772	-294.95114	1042.1838	-120.95847	-371.40024	1123.0439	-96.56852	-387.23154	915.66614	305.37042	-400.35669	1013.751	352.23343
295	1.465	-535.40186	156.6698	-527.65717	-573.02942	165.1436	-485.37314	-375.61359	569.79901	-414.33841	-472.41287	552.09656	-367.93976	-408.51855	999.85968	-632.85779	-629.13702	1198.4644	-417.31284	-296.62433	1036.9969	-118.49592	-373.78488	1117.6642	-91.48024	-391.54752	899.39447	302.63058	-408.19064	995.71893	352.35129
296	1.47	-535.0545	157.47351	-527.14081	-572.82092	165.73312	-484.95486	-375.91382	570.61115	-412.76132	-472.3342	552.32367	-368.49118	-406.14166	1001.993	-629.51398	-632.83173	1195.9752	-415.51321	-300.61124	1030.7784	-115.13285	-375.2619	1112.0322	-86.881859	-396.20334	882.02509	299.20987	-416.09412	977.15247	352.03009
297	1.475	-534.7666	158.1115	-526.66742	-572.19446	166.24541	-484.28027	-375.95987	571.35913	-411.65863	-473.03979	553.00854	-367.71994	-403.86203	1004.2765	-626.0639	-636.58307	1193.2117	-413.85229	-304.5621	1024.1996	-112.20761	-376.68994	1106.2604	-82.60202	-401.38177	865.66382	295.89725	-423.57883	958.49829	350.93817
298	1.48	-534.39117	158.68973	-526.34259	-572.19611	166.78995	-483.89886	-376.461	571.78638	-410.60309	-473.6416	554.15094	-366.10773	-402.08652	1006.4952	-622.51849	-640.42963	1190.0648	-411.81943	-308.86688	1017.507	-109.51564	-378.83179	1100.2216	-78.422569	-408.92841	849.33478	292.45435	-430.72867	939.70776	349.18225
299	1.485	-533.9848	159.24429	-526.14789	-571.66162	167.3307	-483.75073	-376.33453	572.31738	-410.07205	-473.87064	554.30212	-365.84692	-400.32739	1008.92	-619.06696	-644.15869	1186.8193	-410.18579	-313.17685	1011.0167	-107.3772	-381.97455	1093.8765	-74.560883	-413.70609	831.86932	288.89938	-438.46576	920.65314	347.30927
300	1.49	-533.48474	159.69611	-526.06897	-571.34052	167.66409	-483.7832	-375.79379	573.03815	-410.04636	-473.67874	554.60498	-365.66827	-398.47794	1011.212	-615.94043	-647.67102	1183.3513	-408.61652	-317.68613	1004.6538	-105.49057	-386.17807	1087.3206	-71.137711	-420.79849	814.64569	284.73257	-446.30746	901.13098	344.72238
301	1.495	-532.96271	159.95128	-526.20923	-570.73407	167.94896	-483.85983	-375.82321	572.9856	-409.67938	-473.34866	554.57251	-365.72318	-396.59845	1013.3214	-613.11578	-651.04272	1179.8433	-407.09406	-321.93039	998.52319	-104.15282	-390.98224	1080.4703	-68.253426	-427.70682	796.48132	279.40628	-454.61603	881.33466	342.06277
302	1.5	-532.34467	160.0732	-526.4422	-570.28632	168.09796	-484.07373	-375.44714	573.22009	-409.7019	-472.73953	554.4801	-366.7103	-394.79041	1015.5026	-610.25409	-654.17682	1176.4354	-405.77542	-326.31509	992.54272	-102.94201	-396.38562	1073.1953	-65.483986	-435.67917	778.43109	274.06689	-463.34671	861.02692	338.73242
